<mxfile host="65bd71144e">
    <diagram id="WWP8tpso6PVZYQG2xFPs" name="Page-1">
        <mxGraphModel dx="961" dy="584" grid="1" gridSize="10" guides="1" tooltips="1" connect="1" arrows="1" fold="1" page="1" pageScale="1" pageWidth="850" pageHeight="1100" math="0" shadow="0">
            <root>
                <mxCell id="0"/>
                <mxCell id="1" parent="0"/>
                <mxCell id="3" value="Temperature Converter" style="strokeWidth=1;shadow=0;dashed=0;align=center;html=1;shape=mxgraph.mockup.containers.window;align=left;verticalAlign=top;spacingLeft=8;strokeColor2=#008cff;strokeColor3=#c4c4c4;fontColor=#666666;mainText=;fontSize=17;labelBackgroundColor=none;" vertex="1" parent="1">
                    <mxGeometry x="70" y="20" width="550" height="380" as="geometry"/>
                </mxCell>
                <mxCell id="4" value="Temperature Converter" style="text;html=1;align=center;verticalAlign=middle;whiteSpace=wrap;rounded=0;fontSize=32;" vertex="1" parent="1">
                    <mxGeometry x="315" y="110" width="60" height="30" as="geometry"/>
                </mxCell>
                <mxCell id="6" value="" style="rounded=0;whiteSpace=wrap;html=1;" vertex="1" parent="1">
                    <mxGeometry x="280" y="180" width="120" height="30" as="geometry"/>
                </mxCell>
                <mxCell id="12" value="C to F" style="text;strokeColor=none;align=left;verticalAlign=middle;spacingLeft=27;spacingRight=10;overflow=hidden;points=[[0,0.5],[1,0.5]];portConstraint=eastwest;rotatable=0;whiteSpace=wrap;html=1;rSize=5;fillColor=none;fontColor=#008CFF;fontSize=17;" vertex="1" parent="1">
                    <mxGeometry x="160" y="230" width="150" height="30" as="geometry"/>
                </mxCell>
                <mxCell id="13" value="" style="shape=ellipse;resizable=0;fillColor=#AAAAAA;gradientColor=#666666;strokeColor=#444444;html=1;" vertex="1" parent="12">
                    <mxGeometry y="0.5" width="15" height="15" relative="1" as="geometry">
                        <mxPoint x="8" y="-7.5" as="offset"/>
                    </mxGeometry>
                </mxCell>
                <mxCell id="14" value="" style="shape=ellipse;resizable=0;fillColor=#444444;strokeColor=none;html=1;" vertex="1" parent="13">
                    <mxGeometry x="0.2" y="0.2" width="9" height="9" relative="1" as="geometry"/>
                </mxCell>
                <mxCell id="17" value="F to C" style="text;strokeColor=none;align=left;verticalAlign=middle;spacingLeft=27;spacingRight=10;overflow=hidden;points=[[0,0.5],[1,0.5]];portConstraint=eastwest;rotatable=0;whiteSpace=wrap;html=1;rSize=5;fillColor=none;fontColor=#008CFF;fontSize=17;" vertex="1" parent="1">
                    <mxGeometry x="380" y="230" width="150" height="30" as="geometry"/>
                </mxCell>
                <mxCell id="18" value="" style="shape=ellipse;resizable=0;fillColor=#AAAAAA;gradientColor=#666666;strokeColor=#444444;html=1;" vertex="1" parent="17">
                    <mxGeometry y="0.5" width="15" height="15" relative="1" as="geometry">
                        <mxPoint x="8" y="-7.5" as="offset"/>
                    </mxGeometry>
                </mxCell>
                <mxCell id="20" value="Convert" style="strokeWidth=1;shadow=0;dashed=0;align=center;html=1;shape=mxgraph.mockup.buttons.button;strokeColor=#666666;fontColor=#ffffff;mainText=;buttonStyle=round;fontSize=17;fontStyle=1;fillColor=#008cff;whiteSpace=wrap;" vertex="1" parent="1">
                    <mxGeometry x="270" y="280" width="150" height="50" as="geometry"/>
                </mxCell>
                <mxCell id="21" value="25" style="text;html=1;align=center;verticalAlign=middle;whiteSpace=wrap;rounded=0;" vertex="1" parent="1">
                    <mxGeometry x="280" y="180" width="60" height="30" as="geometry"/>
                </mxCell>
                <mxCell id="22" value="&lt;font style=&quot;font-size: 20px;&quot;&gt;25&lt;span style=&quot;color: rgb(31, 31, 31); font-family: &amp;quot;Google Sans&amp;quot;, Arial, sans-serif; text-align: left; background-color: rgb(255, 255, 255);&quot;&gt;°C is equal to &lt;/span&gt;&lt;span style=&quot;color: rgb(31, 31, 31); text-align: left; background-color: rgb(255, 255, 255);&quot;&gt;77&lt;/span&gt;&lt;/font&gt;&lt;span style=&quot;scrollbar-color: light-dark(#e2e2e2, #4b4b4b)&lt;br/&gt;&#x9;&#x9;&#x9;&#x9;&#x9;light-dark(#fbfbfb, var(--dark-panel-color)); font-size: 20px; font-family: &amp;quot;Google Sans&amp;quot;, Arial, sans-serif; text-align: left; background-color: rgb(255, 255, 255); color: rgb(31, 31, 31);&quot;&gt;°F&lt;/span&gt;" style="text;html=1;align=center;verticalAlign=middle;whiteSpace=wrap;rounded=0;" vertex="1" parent="1">
                    <mxGeometry x="215" y="350" width="260" height="30" as="geometry"/>
                </mxCell>
                <mxCell id="23" value="" style="endArrow=none;dashed=1;html=1;dashPattern=1 3;strokeWidth=2;strokeColor=#CC0000;" edge="1" parent="1">
                    <mxGeometry width="50" height="50" relative="1" as="geometry">
                        <mxPoint x="50" y="170" as="sourcePoint"/>
                        <mxPoint x="670.5555419921875" y="170" as="targetPoint"/>
                    </mxGeometry>
                </mxCell>
                <mxCell id="24" value="" style="endArrow=none;dashed=1;html=1;dashPattern=1 3;strokeWidth=2;strokeColor=#CC0000;" edge="1" parent="1">
                    <mxGeometry width="50" height="50" relative="1" as="geometry">
                        <mxPoint x="40" y="229" as="sourcePoint"/>
                        <mxPoint x="660.5555419921875" y="229" as="targetPoint"/>
                    </mxGeometry>
                </mxCell>
                <mxCell id="26" value="" style="endArrow=none;dashed=1;html=1;dashPattern=1 3;strokeWidth=2;strokeColor=#CC0000;" edge="1" parent="1">
                    <mxGeometry width="50" height="50" relative="1" as="geometry">
                        <mxPoint x="29.72" y="340" as="sourcePoint"/>
                        <mxPoint x="650.2755419921875" y="340" as="targetPoint"/>
                    </mxGeometry>
                </mxCell>
                <mxCell id="25" value="" style="endArrow=none;dashed=1;html=1;dashPattern=1 3;strokeWidth=2;strokeColor=#CC0000;" edge="1" parent="1">
                    <mxGeometry width="50" height="50" relative="1" as="geometry">
                        <mxPoint x="30" y="270" as="sourcePoint"/>
                        <mxPoint x="650.5555419921875" y="270" as="targetPoint"/>
                    </mxGeometry>
                </mxCell>
                <mxCell id="27" value="" style="endArrow=none;dashed=1;html=1;dashPattern=1 3;strokeWidth=2;strokeColor=#CC0000;" edge="1" parent="1">
                    <mxGeometry width="50" height="50" relative="1" as="geometry">
                        <mxPoint x="339" y="410" as="sourcePoint"/>
                        <mxPoint x="339" y="10" as="targetPoint"/>
                    </mxGeometry>
                </mxCell>
            </root>
        </mxGraphModel>
    </diagram>
</mxfile>